<?xml version="1.0" encoding="UTF-8"?>
<svg id="Ebene_1" data-name="Ebene 1" xmlns="http://www.w3.org/2000/svg" viewBox="0 0 1000 1043.48">
  <defs>
    <style>
      .cls-1 {
        fill: none;
      }

      .cls-2 {
        fill: #fff;
      }

      .cls-3 {
        fill: #97bf1e;
      }
    </style>
  </defs>
  <rect class="cls-2" x="166.76" y="88.52" width="702" height="889"/>
  <path class="cls-3" d="m999.74,691.02c0,113.57-.15,227.13.26,340.7.04,9.95-2.73,11.78-12.08,11.77-202.72-.28-405.43.15-608.15-.62-29.28-.11-58.57-4.9-87.68-9.98-33.61-5.86-66.45-13.94-97.8-27.08-29.45-12.35-57.35-27.47-81.99-48.54-57.22-48.94-86.68-112.61-101.22-184.78C3.44,734.51.15,696.24.18,657.52.34,442.44.34,227.36,0,12.28-.02,1.95,3.01-.01,12.65,0c199.43.28,398.86-.51,598.29.68,53.43.32,106.46,8.68,157.97,24.29,33.01,10.01,64.3,23.6,93.38,42.38,52.47,33.89,86.4,82.11,108.86,139.31,13,33.12,20.08,67.62,24.46,102.88,2.73,21.97,4.22,43.86,4.19,65.97-.13,105.17-.06,210.33-.06,315.5Zm-749.62-16.56c.1,11.58,1.04,23.1,1.8,34.65,1.34,20.21,5.03,39.79,10.94,58.98,11.12,36.13,30.79,67.34,54.69,96.46,21.38,26.04,46.24,47.72,75.53,63.73,45.95,25.12,95.13,36.35,147.91,32.03,25.19-2.06,48.77-8.93,70.59-20.33,48.76-25.48,83.63-65.2,107.45-114.14,26.2-53.84,35.45-110.82,28.99-170.73-3.63-33.69-13.51-65.01-28.58-94.83-21.87-43.28-51.6-81.52-79.48-120.9-30.99-43.77-64.47-85.99-84.98-136.23-14.15-34.68-22.97-70.65-24.35-108.29-1.17-32.04,4.6-62.99,13.99-93.39.92-2.98,2.24-5.88-.54-7.61-2.7-1.68-4.67,1.53-6.15,3.27-11.7,13.68-23.57,27.24-34.69,41.39-22.38,28.47-44.61,57.06-66.37,86-34.86,46.37-68.46,93.41-94.01,146-25.33,52.15-50.77,104.17-70.19,158.86-16.64,46.86-23.02,95.49-22.55,145.09ZM547.83,89.4c-.67-.31-1.93-1.25-2.29-.98-1.03.77-1.99,1.93-2.39,3.13-.18.55.69,1.93,2.19,1.32,1.43-.58,2.55-1.29,2.49-3.46Z"/>
  <path class="cls-1" d="m250.13,674.46c-.48-49.61,5.89-98.23,22.54-145.1,19.42-54.68,44.86-106.71,70.19-158.86,25.55-52.59,59.15-99.63,94.01-146,21.76-28.94,43.99-57.54,66.37-86,11.12-14.15,22.99-27.71,34.69-41.39,1.48-1.73,3.45-4.95,6.15-3.27,2.78,1.73,1.46,4.63.54,7.61-9.39,30.4-15.17,61.36-13.99,93.39,1.38,37.64,10.2,73.61,24.35,108.29,20.5,50.24,53.99,92.46,84.98,136.23,27.88,39.38,57.61,77.62,79.48,120.9,15.07,29.82,24.95,61.14,28.58,94.83,6.46,59.91-2.78,116.88-28.99,170.73-23.82,48.94-58.69,88.66-107.45,114.14-21.81,11.4-45.4,18.26-70.59,20.33-52.79,4.33-101.96-6.91-147.91-32.03-29.29-16.01-54.16-37.69-75.53-63.73-23.91-29.12-43.58-60.33-54.69-96.46-5.91-19.19-9.59-38.77-10.94-58.98-.77-11.54-1.7-23.07-1.8-34.64Zm331.96,92.71c10.22,0,20.47.49,30.65-.1,26.62-1.54,42.95-24.61,40.24-46.45-3.22-26.04-18.2-39.76-46.4-40.96-17.85-.76-35.77-.43-53.64,0-6.91.17-9.5-1.46-9.29-8.92.54-18.96.23-37.94.16-56.92-.05-11.96-3.76-22.94-12.56-30.94-14.89-13.53-33.18-14.84-50.47-7.29-16.72,7.3-24.46,22.6-24.6,41.08-.13,16.42-.66,32.87.2,49.25.55,10.46-1.53,14.76-13.29,13.91-17.07-1.22-34.29-.65-51.44-.23-21.75.54-46.03,16.45-43.21,49.41,1.8,21.01,19.68,38.1,43.66,38.15,17.88.04,35.79.56,53.64-.22,9-.39,10.48,2.78,10.66,10.98.48,21.72-2.78,43.57,1.9,65.17,5.18,23.93,25.98,34.59,43.82,33.24,27.02-2.05,41.65-20.64,41.7-43.05.04-18.61.38-37.23-.17-55.82-.23-7.78,1.26-11.26,9.97-10.48,9.41.85,18.96.19,28.45.19Z"/>
  <path class="cls-3" d="m547.83,89.4c.06,2.17-1.06,2.88-2.49,3.46-1.49.61-2.37-.77-2.19-1.32.4-1.2,1.35-2.36,2.39-3.13.36-.27,1.62.68,2.29.98Z"/>
  <path class="cls-3" d="m582.08,767.17c-9.49,0-19.04.66-28.45-.19-8.72-.79-10.2,2.7-9.97,10.48.54,18.59.21,37.21.17,55.82-.05,22.41-14.67,41-41.7,43.05-17.84,1.35-38.64-9.31-43.82-33.24-4.68-21.6-1.42-43.45-1.9-65.17-.18-8.2-1.66-11.37-10.66-10.98-17.85.78-35.76.26-53.64.22-23.97-.05-41.86-17.15-43.66-38.15-2.82-32.95,21.46-48.86,43.21-49.41,17.14-.43,34.37-1,51.44.23,11.77.84,13.84-3.46,13.29-13.91-.86-16.38-.33-32.83-.2-49.25.15-18.48,7.89-33.78,24.6-41.08,17.29-7.55,35.58-6.24,50.47,7.29,8.8,8,12.51,18.98,12.56,30.94.07,18.97.38,37.96-.16,56.92-.21,7.46,2.38,9.09,9.29,8.92,17.87-.44,35.79-.77,53.64,0,28.2,1.2,43.17,14.92,46.4,40.96,2.71,21.84-13.63,44.92-40.24,46.45-10.19.59-20.43.1-30.65.1Z"/>
</svg>